<?xml version="1.0" standalone="no"?>
<!DOCTYPE svg PUBLIC "-//W3C//DTD SVG 20010904//EN"
 "http://www.w3.org/TR/2001/REC-SVG-20010904/DTD/svg10.dtd">
<svg version="1.0" xmlns="http://www.w3.org/2000/svg"
 width="972.000000pt" height="972.000000pt" viewBox="0 0 972.000000 972.000000"
 preserveAspectRatio="xMidYMid meet">
<metadata>
Created by potrace 1.14, written by Peter Selinger 2001-2017
</metadata>
<g transform="translate(0.000000,972.000000) scale(0.100000,-0.100000)"
fill="#000000" stroke="none">
<path d="M7274 7284 l-2422 -2424 -2421 2422 -2421 2422 0 -4843 0 -4844 741
742 741 741 0 2226 0 2226 54 -55 c29 -30 55 -52 57 -51 2 2 9 -6 16 -19 7
-12 35 -40 61 -62 26 -22 54 -50 60 -62 7 -12 17 -20 22 -17 4 3 8 1 8 -3 0
-8 32 -45 66 -74 11 -9 70 -68 132 -131 61 -63 114 -112 117 -110 3 3 5 1 5
-4 0 -5 95 -104 211 -219 116 -116 216 -215 222 -222 7 -6 133 -133 282 -282
148 -149 273 -271 279 -271 5 0 7 -2 4 -5 -4 -5 286 -299 313 -316 8 -5 11 -9
8 -9 -3 0 64 -69 149 -153 84 -83 158 -151 163 -149 5 1 8 -1 7 -5 -3 -16 15
-43 28 -43 8 0 14 -3 14 -7 0 -13 108 -122 114 -115 3 3 6 1 6 -5 0 -12 140
-153 152 -153 4 0 9 -6 9 -12 1 -7 45 -55 99 -106 54 -50 97 -92 96 -92 -2 0
32 -35 73 -78 42 -42 79 -76 84 -74 4 2 7 -1 7 -6 0 -5 61 -70 135 -144 74
-73 135 -133 135 -132 0 2 24 -23 53 -53 28 -31 67 -70 85 -86 17 -16 32 -34
32 -40 0 -5 -124 -134 -275 -285 -151 -151 -275 -279 -275 -283 0 -5 -4 -9 -8
-9 -8 0 -2012 -1999 -2012 -2007 0 -2 1162 -3 2582 -3 l2581 0 -916 917 c-505
504 -917 920 -917 925 0 4 -4 8 -8 8 -11 0 -472 460 -472 471 0 4 -4 9 -10 11
-5 2 -66 59 -135 127 l-126 124 28 30 c46 47 3322 3324 3337 3336 11 9 13 0
12 -50 -1 -33 2 -63 7 -66 4 -2 4 -10 0 -16 -10 -17 -10 -127 0 -127 4 0 5 -6
1 -12 -12 -19 -11 -188 1 -188 7 0 7 -3 0 -8 -12 -9 -14 -72 -2 -72 4 0 5 -6
0 -12 -11 -19 -12 -37 -2 -44 5 -3 6 -11 2 -17 -10 -17 -10 -127 0 -127 4 0 5
-6 1 -12 -12 -19 -11 -188 1 -188 7 0 7 -3 0 -8 -12 -9 -14 -72 -2 -72 4 0 5
-6 0 -12 -11 -19 -12 -37 -2 -44 5 -3 6 -11 2 -17 -10 -17 -10 -127 0 -127 4
0 5 -6 1 -12 -12 -19 -11 -188 1 -188 7 0 7 -3 0 -8 -12 -9 -14 -72 -2 -72 4
0 5 -6 0 -13 -11 -18 -12 -36 -2 -43 5 -3 6 -11 2 -17 -12 -18 -10 -197 2
-197 6 0 6 -3 0 -8 -14 -9 -13 -274 0 -284 7 -5 7 -8 0 -8 -5 0 -10 -16 -10
-35 0 -19 4 -35 8 -35 5 0 5 -6 0 -12 -11 -19 -12 -37 -2 -44 5 -3 6 -11 2
-17 -12 -18 -10 -197 2 -197 6 0 6 -3 0 -8 -14 -9 -13 -274 0 -284 7 -5 7 -8
0 -8 -5 0 -10 -16 -10 -35 0 -19 4 -35 8 -35 5 0 5 -6 0 -12 -11 -19 -12 -37
-2 -44 5 -3 6 -11 2 -17 -12 -18 -10 -197 2 -197 6 0 6 -3 0 -8 -14 -9 -13
-274 0 -284 7 -5 7 -8 0 -8 -5 0 -10 -16 -10 -35 0 -19 4 -35 8 -35 5 0 5 -6
0 -12 -11 -19 -12 -37 -2 -44 5 -3 6 -11 2 -17 -12 -18 -10 -197 2 -197 7 0 6
-3 0 -8 -11 -8 -13 -240 -2 -258 3 -6 3 -14 -1 -18 -11 -12 -8 -196 3 -196 7
0 7 -3 0 -8 -12 -8 -14 -162 -2 -162 5 0 5 -5 1 -12 -4 -6 -8 -36 -9 -66 l-1
-54 733 -734 c403 -404 735 -734 738 -734 3 0 5 2183 5 4850 0 2668 -3 4850
-7 4849 -5 0 -1098 -1092 -2429 -2425z"/>
</g>
</svg>
