<?xml version="1.0" encoding="UTF-8"?><svg xmlns="http://www.w3.org/2000/svg" width="831" height="246.65" viewBox="0 0 831 246.65"><defs><style>.d{fill:#f7931e;}</style></defs><g id="a"/><g id="b"><g id="c"><g><polygon points="37.44 94.05 93.03 149.65 121.34 121.34 .43 .43 .43 242.24 37.44 205.24 37.44 94.05"/><polygon class="d" points="0 242.68 .43 242.68 .43 242.24 0 242.68"/><polygon class="d" points="93.03 149.65 121.51 178.13 205.89 93.75 205.89 205.89 242.68 242.68 242.68 242.68 242.68 0 93.03 149.65"/><polygon class="d" points="121.51 178.13 56.96 242.68 186.06 242.68 121.51 178.13"/><polygon class="d" points="470.66 125.12 470.67 125.13 309.18 206.05 309.18 246.65 551.34 125.31 510.81 105.01 470.66 125.12"/><polygon points="309.18 3.98 309.18 44.21 470.66 125.12 510.81 105.01 309.18 3.98"/><polygon points="402.45 125.52 309.53 172.26 309.53 78.77 402.45 125.52"/><rect x="589.85" y="4.32" width="44.04" height="241.81"/><polygon class="d" points="831 90.05 654.62 3.92 654.62 43.06 751.35 90.3 654.62 137.53 654.62 176.18 831 90.05"/></g></g></g></svg>